#!OML:ASF F:\VICON\USERDATA\INSTALL\rory3\rory3.ASF
:FULLY-SPECIFIED
:DEGREES
37
root 0.334748457652125 17.806931167958624 13.601448974544613 -3.873217065816957 -1.433250091817575 2.9237284826036576
lfemur -2.6511375812928772 -3.9889434732837206 -25.91326890011623
ltibia 25.325332423662218
lfoot -11.160939201114454 -1.6885478522866262
ltoes -3.609270726294723
rfemur -22.026602216738866 1.048407321378002 17.201914334606542
rtibia 67.57056843280945
rfoot -7.738175222787091 -3.532395569099933
rtoes 5.492580390109493
lowerback 1.0 0.48754514400569937 -1.905919524703343
upperback 0.41952362669546667 0.3635801279238414 0.5305444360847176
thorax -5.044262170029152 0.29016270426448143 1.584780493822917
lowerneck -15.896867745851516 -2.992132345609395 -1.432866066042548
upperneck 23.138003168497722 -3.881251617215635 0.788790800978124
head 10.324450585010652 -1.8630784251041255 0.06114663477095186
lclavicle -1.915001713843338e-15 -2.120524510818788e-16
lhumerus -25.382934154644083 -0.9277635956720331 81.20002161335316
lradius 29.440712240018478
lwrist 3.5553693591081656
lhand -27.588616884375984 25.598015468942954
lfingers nan
lthumb -0.49533055376263224 55.91529935922086
rclavicle -1.8952638618126845e-15 -1.9500555223199195e-16
rhumerus -28.036857225900746 -19.055335887495403 -80.05291354124132
rradius 24.360355506578575
rwrist 7.1488528783405325
rhand -18.338642235994744 1.0
rfingers nan
rthumb 8.589910850493384 -7.427596937180073
38
root 0.3785556710753861 17.809682372194736 15.919050672369906 -3.4427002088805745 -0.739826681429456 1.25980921810367
lfemur -0.7099438110371477 -4.497131364510584 -24.58378813326212
ltibia 25.983986574074795
lfoot -12.375705509917886 -0.6022881638544615
ltoes -3.256307187707774
rfemur -24.718069385765403 0.629369787066747 18.503070147130842
rtibia 65.60826429285586
rfoot -7.890659863168912 -3.3308379942146473
rtoes 5.107651825596938
lowerback 1.0 0.18882934423748796 -0.7887332483717009
upperback 0.22572050663446536 0.08154039971459826 0.9983743451959088
thorax -5.278723234521447 0.12481619217072851 1.8665100551432352
lowerneck -16.08013059830629 -2.8329755467585525 -1.4830774219108762
upperneck 23.366298220061253 -3.5614801922874233 0.6610716305342661
head 10.380613205911423 -1.7620705719121896 0.08615782939023245
lclavicle -1.938737901261295e-15 -2.278283979229133e-16
lhumerus -24.5192106004372 -1.2301559599500793 80.96820125933546
lradius 29.97151055257669
lwrist 3.66049884022504
lhand -27.620515996682556 24.889135477562476
lfingers nan
lthumb -0.3923824597568931 55.38344574749401
rclavicle -1.9055226292405437e-15 -2.0082385911418126e-16
rhumerus -29.02795714342178 -21.138512551955163 -81.17622416750623
rradius 23.256619498563836
rwrist 7.265877256487077
rhand -18.361645559492267 1.0
rfingers nan
rthumb 8.544532737313226 -7.519559138447925
39
root 0.4329973279002209 17.835150416980962 18.121127024338502 -3.0921665455350693 -0.4909743472788567 0.6248911965669386
lfemur 0.7344702779974099 -4.498900263477978 -23.889356964460465
ltibia 26.757308178537208
lfoot -11.868809012376643 0.15867644954631865
ltoes -4.165139917681173
rfemur -26.38893218034058 0.9596631705486351 19.066966422018623
rtibia 62.36066408934684
rfoot -7.646642808868818 -3.1621102058040416
rtoes 5.244919933231909
lowerback 1.0 -0.09823394535685936 -0.5729801847310194
upperback 0.15854817670607196 -0.18052193645892256 1.266683156248643
thorax -5.371519228446143 -0.01630445567461175 2.2693584027929448
lowerneck -16.204470546215475 -2.7034550043998564 -1.562676754992978
upperneck 23.331312958719153 -3.3003373386794914 0.506637450671879
head 10.306591068924467 -1.674902422671342 0.09611987787738188
lclavicle -1.9333304440889798e-15 -2.2145212924363197e-16
lhumerus -24.104234329749254 -1.3414374302740955 80.82810410931066
lradius 30.430264502905757
lwrist 3.2692702098800632
lhand -27.519899260338295 24.134885433604676
lfingers nan
lthumb -0.4373507780200906 54.43978651908126
rclavicle -1.906118384561458e-15 -1.9978719517595252e-16
rhumerus -30.172916287310784 -22.785773903207748 -81.82669010063745
rradius 22.75006917848618
rwrist 6.717410623893912
rhand -18.31522065962902 1.0
rfingers nan
rthumb 8.508336712715888 -7.648984656735176
40
root 0.4697544818020594 17.858849989993548 19.59777703634082 -3.055174025360962 -0.6799280481801356 1.0188812584014708
lfemur 2.2671623459282184 -4.266104502222916 -24.156113152795484
ltibia 27.287636855327385
lfoot -10.893923463638636 -0.2746301353200833
ltoes -6.730647253412846
rfemur -26.72545610497199 1.492877330923526 18.813379560476918
rtibia 58.11312023604137
rfoot -7.003631180692294 -2.7488145997023357
rtoes 5.375250287143846
lowerback 1.0 -0.3387713790695128 -1.26451932336305
upperback 0.18150197304492371 -0.5621695619820597 1.2485159251391131
thorax -5.350590247823455 -0.22696511352058468 2.655085265837453
lowerneck -16.211238965166455 -2.58829984469768 -1.6628121641972018
upperneck 23.59552870387661 -3.040105678750571 0.3199464645636038
head 10.350860432387924 -1.5873577845691893 0.09066605222983246
lclavicle -1.9436722666812798e-15 -2.280536828915373e-16
lhumerus -24.058473374062814 -1.4353528104647166 80.76807439292075
lradius 30.613683014274216
lwrist 3.02194010926586
lhand -27.56950056173877 23.912702066256404
lfingers nan
lthumb -0.5288805663880136 54.08645953731306
rclavicle -1.9112943054634833e-15 -2.0266240785876096e-16
rhumerus -31.470264494413797 -23.992161933262942 -82.0196279056409
rradius 22.87847475813747
rwrist 5.194840329986604
rhand -18.319590983539282 1.0
rfingers nan
rthumb 8.50973479742073 -7.757913751332843
41
root 0.5004108926059782 17.869775464623558 20.82406053649311 -3.2468959812596063 -0.6433997668469086 1.688674816191623
lfemur 4.0456066410516485 -4.101014671313947 -24.786415476431173
ltibia 27.398565728882982
lfoot -9.3475273356986 0.7147764787723867
ltoes -9.868245415995574
rfemur -26.43850736508879 1.606380160840141 18.13477633705427
rtibia 53.68498787936693
rfoot -6.262746328524306 -1.9322985872647793
rtoes 6.190461605780149
lowerback 1.0 -0.4578266881005286 -1.8928011145102221
upperback 0.4309673257651734 -0.9683858032186614 1.4129810619502785
thorax -5.126348793508595 -0.4320941882102818 3.000816887543629
lowerneck -16.156915396207754 -2.5080805650166447 -1.7756385670518529
upperneck 23.772786860136733 -2.8752118753505815 0.16307930642100205
head 10.355413209609907 -1.539943936200998 0.07299154910557293
lclavicle -1.9470868924385556e-15 -2.2918528130162285e-16
lhumerus -24.224554774943943 -1.48046771022136 80.81726705468112
lradius 30.393801207852796
lwrist 3.288536892301387
lhand -27.715542876042313 23.826574654840318
lfingers nan
lthumb -0.7911387707840072 53.80413961991095
rclavicle -1.9142074511800563e-15 -2.038415704069797e-16
rhumerus -32.810581300670066 -24.72633272306293 -81.80320337230582
rradius 23.537918402769325
rwrist 2.8950423151277613
rhand -18.274488852415754 1.0
rfingers nan
rthumb 8.530943681012442 -7.834988717205251
42
root 0.5383672118632168 17.878610702313964 22.02124183748615 -3.1199887029145406 -0.4745916165537738 1.4314949496011011
lfemur 4.742928437170285 -4.178548985239641 -24.574856163327617
ltibia 28.223253852010842
lfoot -6.727568169293178 -1.1276451389508324
ltoes -9.923395233374963
rfemur -25.970597102389938 1.642167877904865 18.43516542503172
rtibia 49.48821846240148
rfoot -5.7977227645747105 -0.8312483883912991
rtoes 7.135974619358746
lowerback 1.0 -0.6418193264029727 -1.7968250844632006
upperback 0.4494328435822037 -1.196501794776998 1.5988354103895135
thorax -5.13130770141328 -0.5675455049042012 3.023707748635672
lowerneck -16.095144489226826 -2.4557679898342384 -1.8572062123051662
upperneck 24.17771959632732 -2.7589776469475034 -0.0405354780274038
head 10.473709313953977 -1.510463469276313 0.00917579571275512
lclavicle -1.952970703089927e-15 -2.3258390058462024e-16
lhumerus -24.51021387529727 -1.5435005811055964 80.95948862676656
lradius 29.681747861945478
lwrist 3.8977366930826696
lhand -27.853162893493533 23.761956206318
lfingers nan
lthumb -0.9242665061105151 53.716231933646235
rclavicle -1.9167367130846973e-15 -2.0487269730675047e-16
rhumerus -34.110890640618486 -25.246662171810122 -81.10787969677358
rradius 24.51267904365552
rwrist 0.8389343594036891
rhand -18.27568919933889 1.0
rfingers nan
rthumb 8.500613689680561 -7.923674916361881
43
root 0.5743406202571603 17.88438834317045 23.301205099635283 -3.031763840828018 -0.3805551008193089 1.2864216206489818
lfemur 4.988663627163465 -4.288414786201572 -24.362203734279035
ltibia 29.81312089468467
lfoot -5.042708051473632 -2.787506415799814
ltoes -9.203036968754402
rfemur -25.58449852136145 1.627051299871018 18.642141974188284
rtibia 45.550013881154854
rfoot -5.903467899284198 -0.1657734264996007
rtoes 7.864470147675675
lowerback 1.0 -0.8211850145847199 -1.8133308200239986
upperback 0.40511070129294235 -1.3720753270820951 1.7682110487209068
thorax -5.183185671470812 -0.6479556463069199 3.1286404645783636
lowerneck -16.10169909971667 -2.436965193469383 -1.8722549078303705
upperneck 24.459362928615075 -2.706651797922067 -0.2329585826918415
head 10.58513835347505 -1.5008327207310255 -0.06662273989634464
lclavicle -1.9541310124980656e-15 -2.3336644129463082e-16
lhumerus -24.86816132215513 -1.6350276669286004 81.15955428612888
lradius 28.556968217735026
lwrist 4.376974283888927
lhand -27.910774902413777 23.58560101034992
lfingers nan
lthumb -1.086843034742013 53.39046713099
rclavicle -1.916580474993299e-15 -2.045901793700587e-16
rhumerus -35.25134596418667 -25.70410815231806 -79.95533523269405
rradius 25.607116627636355
rwrist -0.26725240465706523
rhand -18.188697407987046 1.0
rfingers nan
rthumb 8.576900550814191 -7.7962134091497886
44
root 0.6093456111062465 17.892571298086636 24.40709905621491 -2.8747392746352896 -0.32393946888677805 1.2915457603376672
lfemur 4.878686566676802 -4.331773491543768 -24.21636205872151
ltibia 32.11415456537674
lfoot -4.2316934830827915 -3.057037592891067
ltoes -9.438374416358087
rfemur -24.70002607329569 1.5778952929487309 18.918024083453318
rtibia 41.97144179190356
rfoot -6.648613928896077 -0.5266777676320027
rtoes 7.660318899666054
lowerback 1.0 -1.01160056163129 -1.9706102442878195
upperback 0.387428751261649 -1.6361920894486175 1.7443822638628292
thorax -5.135502919625815 -0.7830213179176897 3.279262839036253
lowerneck -16.13919146374893 -2.4385919203555737 -1.8935484657374677
upperneck 24.54794206631564 -2.6940190779563666 -0.35711080750504287
head 10.61354953907199 -1.5036721537398958 -0.1188759225130049
lclavicle -1.9573619906183916e-15 -2.3562356928112626e-16
lhumerus -25.292960666850753 -1.7436159572673784 81.38334460452636
lradius 27.045858058915883
lwrist 4.667004713818114
lhand -27.991063391883273 23.36340805336409
lfingers nan
lthumb -1.1459593908945556 53.179480335973885
rclavicle -1.918372623636979e-15 -2.0575435928904408e-16
rhumerus -36.13902117251057 -26.30853283939377 -78.46933962446738
rradius 26.712306283216837
rwrist -0.4808627619167254
rhand -18.194043011344043 1.0
rfingers nan
rthumb 8.53127990313926 -7.862090623654354
